<svg width="14" height="12" viewBox="0 0 14 12" fill="none" xmlns="http://www.w3.org/2000/svg">
<path d="M10.2667 11.4973C7.54485 11.4942 4.93554 10.5605 3.01093 8.90097C1.08632 7.2414 0.00352794 4.99141 0 2.64442C0 1.94309 0.323094 1.27049 0.898205 0.77458C1.47332 0.278667 2.25333 6.57035e-05 3.06666 6.57035e-05C3.23889 -0.00106551 3.41083 0.0124127 3.58 0.0403059C3.74354 0.0611736 3.90431 0.0958313 4.05999 0.143781C4.16949 0.17691 4.26707 0.23411 4.34307 0.309727C4.41907 0.385343 4.47086 0.476756 4.49333 0.574926L5.40666 4.02409C5.43128 4.11771 5.42831 4.21516 5.39804 4.30754C5.36776 4.39992 5.31113 4.48429 5.23333 4.55296C5.14666 4.63344 5.13999 4.63919 4.31999 5.0071C4.97666 6.24929 6.12879 7.24684 7.56666 7.81816C7.99999 7.10534 8.00666 7.09959 8.09999 7.02485C8.17962 6.95776 8.27746 6.90894 8.3846 6.88283C8.49174 6.85672 8.60475 6.85416 8.71332 6.87539L12.7133 7.66295C12.8235 7.685 12.9254 7.73087 13.0094 7.79623C13.0933 7.8616 13.1566 7.94432 13.1933 8.03661C13.2496 8.17306 13.292 8.31347 13.32 8.45626C13.3468 8.60073 13.3602 8.74683 13.36 8.89315C13.3477 9.59148 13.0155 10.2573 12.436 10.7451C11.8564 11.233 11.0766 11.5034 10.2667 11.4973ZM3.06666 1.14979C2.6075 1.1513 2.16764 1.30926 1.84295 1.58923C1.51827 1.8692 1.33509 2.24849 1.33333 2.64442C1.3351 4.68695 2.27685 6.64539 3.95179 8.08967C5.62673 9.53396 7.89793 10.346 10.2667 10.3475C10.7258 10.346 11.1657 10.1881 11.4904 9.9081C11.815 9.62813 11.9982 9.24885 12 8.85291V8.66321L8.90665 8.04811L8.71332 8.36428C8.41332 8.86441 8.19332 9.22657 7.63332 9.03112C6.52858 8.69014 5.52579 8.14125 4.69782 7.42431C3.86984 6.70738 3.23748 5.8404 2.84666 4.88638C2.60666 4.43798 3.06 4.23104 3.63333 3.97235L3.99999 3.81714L3.28666 1.14979H3.06666Z" fill="#969696"/>
</svg>
